G04 ================== begin FILE IDENTIFICATION RECORD ==================*
G04 Layout Name:  P1-Part_2.brd*
G04 Film Name:    SSTOP*
G04 File Format:  Gerber RS274X*
G04 File Origin:  Cadence Allegro 17.2-S025*
G04 Origin Date:  Mon Jan 20 19:04:43 2025*
G04 *
G04 Layer:  REF DES/SILKSCREEN_TOP*
G04 Layer:  PACKAGE GEOMETRY/SILKSCREEN_TOP*
G04 Layer:  BOARD GEOMETRY/SILKSCREEN_TOP*
G04 *
G04 Offset:    (0.00 0.00)*
G04 Mirror:    No*
G04 Mode:      Positive*
G04 Rotation:  0*
G04 FullContactRelief:  No*
G04 UndefLineWidth:     10.00*
G04 ================== end FILE IDENTIFICATION RECORD ====================*
%FSLAX25Y25*MOIN*%
%IR0*IPPOS*OFA0.00000B0.00000*MIA0B0*SFA1.00000B1.00000*%
%ADD10C,.01*%
%ADD11C,.006*%
%ADD12C,.0035*%
%ADD13C,.00984*%
%ADD14C,.00787*%
G75*
%LPD*%
G75*
G54D10*
G01X130500Y128500D02*
X124000D01*
Y128400D01*
Y111500D01*
X130500D01*
G01X141500D02*
X148000D01*
Y128500D01*
X146500D01*
X141500D01*
G54D11*
G01X132850Y144000D02*
X132000Y143150D01*
G01D02*
Y138850D01*
G01D02*
X116200D01*
G01D02*
Y149150D01*
G01D02*
X132000D01*
G01D02*
Y144850D01*
G01D02*
X132850Y144000D01*
G54D12*
G01X11000Y60323D02*
X9450D01*
Y61157D01*
X9528Y61423D01*
X9631Y61590D01*
X9838Y61657D01*
X10044Y61590D01*
X10173Y61390D01*
X10251Y61157D01*
Y60323D01*
G01Y61157D02*
X11000Y61657D01*
G01Y63000D02*
X9450D01*
X9760Y62600D01*
G01X11000D02*
Y63400D01*
G01X10768Y64277D02*
X10897Y64477D01*
X10974Y64710D01*
X11000Y65010D01*
X10948Y65310D01*
X10845Y65543D01*
X10664Y65710D01*
X10458Y65743D01*
X10251Y65677D01*
X10122Y65510D01*
X10018Y65277D01*
X9993Y65043D01*
X10018Y64810D01*
X10122Y64510D01*
X9450Y64610D01*
Y65510D01*
G01X11000Y88323D02*
X9450D01*
Y89157D01*
X9528Y89423D01*
X9631Y89590D01*
X9838Y89657D01*
X10044Y89590D01*
X10173Y89390D01*
X10251Y89157D01*
Y88323D01*
G01Y89157D02*
X11000Y89657D01*
G01Y91000D02*
X9450D01*
X9760Y90600D01*
G01X11000D02*
Y91400D01*
G01Y93410D02*
X9450D01*
X10561Y92177D01*
Y93843D01*
G01X11000Y115323D02*
X9450D01*
Y116157D01*
X9528Y116423D01*
X9631Y116590D01*
X9838Y116657D01*
X10044Y116590D01*
X10173Y116390D01*
X10251Y116157D01*
Y115323D01*
G01Y116157D02*
X11000Y116657D01*
G01Y118000D02*
X9450D01*
X9760Y117600D01*
G01X11000D02*
Y118400D01*
G01X10690Y119277D02*
X10871Y119477D01*
X10974Y119743D01*
X11000Y120043D01*
X10974Y120310D01*
X10845Y120577D01*
X10690Y120743D01*
X10535Y120777D01*
X10354Y120710D01*
X10225Y120477D01*
X10173Y120243D01*
Y119943D01*
G01Y120243D02*
X10096Y120443D01*
X9967Y120610D01*
X9812Y120677D01*
X9657Y120610D01*
X9528Y120443D01*
X9450Y120143D01*
X9476Y119843D01*
X9579Y119543D01*
G01X29118Y18000D02*
Y19550D01*
X29985Y18258D01*
X30852Y19550D01*
Y18000D01*
G01X31595Y19550D02*
X32395D01*
G01X31995D02*
Y18000D01*
G01X31595D02*
X32395D01*
G01X34738Y19421D02*
X34538Y19498D01*
X34305Y19550D01*
X34038D01*
X33738Y19472D01*
X33505Y19343D01*
X33338Y19188D01*
X33205Y18930D01*
X33172Y18697D01*
X33238Y18465D01*
X33338Y18310D01*
X33538Y18155D01*
X33772Y18052D01*
X34005Y18000D01*
X34238D01*
X34472Y18052D01*
X34672Y18129D01*
X34838Y18232D01*
G01X35382Y19292D02*
X35582Y19447D01*
X35815Y19524D01*
X36082Y19550D01*
X36415Y19498D01*
X36648Y19369D01*
X36715Y19214D01*
X36682Y19059D01*
X36548Y18930D01*
X35882Y18672D01*
X35582Y18491D01*
X35382Y18232D01*
X35315Y18000D01*
X36715D01*
G01X25690Y22323D02*
X25845Y22490D01*
X25948Y22690D01*
X26000Y22923D01*
X25948Y23190D01*
X25845Y23390D01*
X25690Y23590D01*
X25483Y23657D01*
X24450D01*
G01X26000Y25000D02*
X24450D01*
X24760Y24600D01*
G01X26000D02*
Y25400D01*
G01X25768Y26277D02*
X25897Y26477D01*
X25974Y26710D01*
X26000Y27010D01*
X25948Y27310D01*
X25845Y27543D01*
X25664Y27710D01*
X25458Y27743D01*
X25251Y27677D01*
X25122Y27510D01*
X25018Y27277D01*
X24993Y27043D01*
X25018Y26810D01*
X25122Y26510D01*
X24450Y26610D01*
Y27510D01*
G01X14190Y43775D02*
X14857D01*
Y43310D01*
X14657Y43155D01*
X14423Y43052D01*
X14090Y43000D01*
X13757Y43052D01*
X13523Y43155D01*
X13323Y43310D01*
X13190Y43491D01*
X13123Y43697D01*
Y43878D01*
X13190Y44033D01*
X13323Y44214D01*
X13523Y44369D01*
X13723Y44472D01*
X13990Y44550D01*
X14223D01*
X14490Y44498D01*
X14690Y44395D01*
G01X15233Y43000D02*
Y44550D01*
X16767Y43000D01*
Y44550D01*
G01X17277Y43000D02*
Y44550D01*
X17943D01*
X18210Y44472D01*
X18410Y44369D01*
X18577Y44214D01*
X18710Y44033D01*
X18743Y43775D01*
X18710Y43517D01*
X18577Y43336D01*
X18410Y43181D01*
X18210Y43077D01*
X17943Y43000D01*
X17277D01*
G01X17323Y53310D02*
X17490Y53155D01*
X17690Y53052D01*
X17923Y53000D01*
X18190Y53052D01*
X18390Y53155D01*
X18590Y53310D01*
X18657Y53517D01*
Y54550D01*
G01X20000Y53000D02*
Y54550D01*
X19600Y54240D01*
G01Y53000D02*
X20400D01*
G01X21277Y53310D02*
X21477Y53129D01*
X21743Y53026D01*
X22043Y53000D01*
X22310Y53026D01*
X22577Y53155D01*
X22743Y53310D01*
X22777Y53465D01*
X22710Y53646D01*
X22477Y53775D01*
X22243Y53827D01*
X21943D01*
G01X22243D02*
X22443Y53904D01*
X22610Y54033D01*
X22677Y54188D01*
X22610Y54343D01*
X22443Y54472D01*
X22143Y54550D01*
X21843Y54524D01*
X21543Y54421D01*
G01X29318Y29000D02*
Y30550D01*
X30118D01*
X30385Y30472D01*
X30585Y30292D01*
X30652Y30085D01*
X30585Y29878D01*
X30418Y29723D01*
X30118Y29646D01*
X29318D01*
G01X31595Y30550D02*
X32395D01*
G01X31995D02*
Y29000D01*
G01X31595D02*
X32395D01*
G01X34738Y30421D02*
X34538Y30498D01*
X34305Y30550D01*
X34038D01*
X33738Y30472D01*
X33505Y30343D01*
X33338Y30188D01*
X33205Y29930D01*
X33172Y29697D01*
X33238Y29465D01*
X33338Y29310D01*
X33538Y29155D01*
X33772Y29052D01*
X34005Y29000D01*
X34238D01*
X34472Y29052D01*
X34672Y29129D01*
X34838Y29232D01*
G01X35382Y30292D02*
X35582Y30447D01*
X35815Y30524D01*
X36082Y30550D01*
X36415Y30498D01*
X36648Y30369D01*
X36715Y30214D01*
X36682Y30059D01*
X36548Y29930D01*
X35882Y29672D01*
X35582Y29491D01*
X35382Y29232D01*
X35315Y29000D01*
X36715D01*
G01X25690Y33328D02*
X25845Y33495D01*
X25948Y33695D01*
X26000Y33928D01*
X25948Y34195D01*
X25845Y34395D01*
X25690Y34595D01*
X25483Y34662D01*
X24450D01*
G01X26000Y35938D02*
X25664Y36005D01*
X25380Y36105D01*
X25122Y36238D01*
X24838Y36405D01*
X24450Y36672D01*
Y35338D01*
G01X29318Y41000D02*
Y42550D01*
X30152D01*
X30418Y42472D01*
X30585Y42369D01*
X30652Y42162D01*
X30585Y41956D01*
X30385Y41827D01*
X30152Y41749D01*
X29318D01*
G01X30152D02*
X30652Y41000D01*
G01X31162D02*
X31995Y42550D01*
X32828Y41000D01*
G01X32528Y41542D02*
X31462D01*
G01X33272Y41000D02*
Y42550D01*
X33938D01*
X34205Y42472D01*
X34405Y42369D01*
X34572Y42214D01*
X34705Y42033D01*
X34738Y41775D01*
X34705Y41517D01*
X34572Y41336D01*
X34405Y41181D01*
X34205Y41077D01*
X33938Y41000D01*
X33272D01*
G01X35382Y42292D02*
X35582Y42447D01*
X35815Y42524D01*
X36082Y42550D01*
X36415Y42498D01*
X36648Y42369D01*
X36715Y42214D01*
X36682Y42059D01*
X36548Y41930D01*
X35882Y41672D01*
X35582Y41491D01*
X35382Y41232D01*
X35315Y41000D01*
X36715D01*
G01X25690Y45328D02*
X25845Y45495D01*
X25948Y45695D01*
X26000Y45928D01*
X25948Y46195D01*
X25845Y46395D01*
X25690Y46595D01*
X25483Y46662D01*
X24450D01*
G01X25354Y47372D02*
X25173Y47605D01*
X25070Y47805D01*
X25018Y48072D01*
X25070Y48305D01*
X25173Y48472D01*
X25328Y48605D01*
X25509Y48638D01*
X25664Y48605D01*
X25819Y48472D01*
X25948Y48272D01*
X26000Y48038D01*
X25948Y47772D01*
X25793Y47538D01*
X25561Y47405D01*
X25303Y47372D01*
X24967Y47438D01*
X24786Y47538D01*
X24605Y47705D01*
X24476Y47938D01*
X24450Y48172D01*
X24502Y48405D01*
X24631Y48572D01*
G01X27000Y58328D02*
X25450D01*
Y59162D01*
X25528Y59428D01*
X25631Y59595D01*
X25838Y59662D01*
X26044Y59595D01*
X26173Y59395D01*
X26251Y59162D01*
Y58328D01*
G01Y59162D02*
X27000Y59662D01*
G01X26690Y60272D02*
X26871Y60472D01*
X26974Y60738D01*
X27000Y61038D01*
X26974Y61305D01*
X26845Y61572D01*
X26690Y61738D01*
X26535Y61772D01*
X26354Y61705D01*
X26225Y61472D01*
X26173Y61238D01*
Y60938D01*
G01Y61238D02*
X26096Y61438D01*
X25967Y61605D01*
X25812Y61672D01*
X25657Y61605D01*
X25528Y61438D01*
X25450Y61138D01*
X25476Y60838D01*
X25579Y60538D01*
G01X18118Y71000D02*
Y72550D01*
X18985Y71258D01*
X19852Y72550D01*
Y71000D01*
G01X20595Y72550D02*
X21395D01*
G01X20995D02*
Y71000D01*
G01X20595D02*
X21395D01*
G01X23738Y72421D02*
X23538Y72498D01*
X23305Y72550D01*
X23038D01*
X22738Y72472D01*
X22505Y72343D01*
X22338Y72188D01*
X22205Y71930D01*
X22172Y71697D01*
X22238Y71465D01*
X22338Y71310D01*
X22538Y71155D01*
X22772Y71052D01*
X23005Y71000D01*
X23238D01*
X23472Y71052D01*
X23672Y71129D01*
X23838Y71232D01*
G01X25015Y71000D02*
Y72550D01*
X24615Y72240D01*
G01Y71000D02*
X25415D01*
G01X18328Y82310D02*
X18495Y82155D01*
X18695Y82052D01*
X18928Y82000D01*
X19195Y82052D01*
X19395Y82155D01*
X19595Y82310D01*
X19662Y82517D01*
Y83550D01*
G01X21405Y82000D02*
Y83550D01*
X20172Y82439D01*
X21838D01*
G01X25450Y80990D02*
X27000D01*
G01X25450Y80223D02*
Y81757D01*
G01X27000Y82333D02*
X25450D01*
Y83133D01*
X25528Y83400D01*
X25708Y83600D01*
X25915Y83667D01*
X26122Y83600D01*
X26277Y83433D01*
X26354Y83133D01*
Y82333D01*
G01X27000Y85410D02*
X25450D01*
X26561Y84177D01*
Y85843D01*
G01X36328Y103000D02*
Y104550D01*
X37162D01*
X37428Y104472D01*
X37595Y104369D01*
X37662Y104162D01*
X37595Y103956D01*
X37395Y103827D01*
X37162Y103749D01*
X36328D01*
G01X37162D02*
X37662Y103000D01*
G01X39005D02*
Y104550D01*
X38605Y104240D01*
G01Y103000D02*
X39405D01*
G01X25450Y108595D02*
Y109395D01*
G01Y108995D02*
X27000D01*
G01Y108595D02*
Y109395D01*
G01Y110238D02*
X25450D01*
X27000Y111772D01*
X25450D01*
G01X32328Y114523D02*
X32495Y114368D01*
X32695Y114265D01*
X32928Y114213D01*
X33195Y114265D01*
X33395Y114368D01*
X33595Y114523D01*
X33662Y114730D01*
Y115763D01*
G01X35005Y114213D02*
Y115763D01*
X34605Y115453D01*
G01Y114213D02*
X35405D01*
G01X18318Y99000D02*
Y100550D01*
X19118D01*
X19385Y100472D01*
X19585Y100292D01*
X19652Y100085D01*
X19585Y99878D01*
X19418Y99723D01*
X19118Y99646D01*
X18318D01*
G01X20595Y100550D02*
X21395D01*
G01X20995D02*
Y99000D01*
G01X20595D02*
X21395D01*
G01X23738Y100421D02*
X23538Y100498D01*
X23305Y100550D01*
X23038D01*
X22738Y100472D01*
X22505Y100343D01*
X22338Y100188D01*
X22205Y99930D01*
X22172Y99697D01*
X22238Y99465D01*
X22338Y99310D01*
X22538Y99155D01*
X22772Y99052D01*
X23005Y99000D01*
X23238D01*
X23472Y99052D01*
X23672Y99129D01*
X23838Y99232D01*
G01X25015Y99000D02*
Y100550D01*
X24615Y100240D01*
G01Y99000D02*
X25415D01*
G01X18328Y109310D02*
X18495Y109155D01*
X18695Y109052D01*
X18928Y109000D01*
X19195Y109052D01*
X19395Y109155D01*
X19595Y109310D01*
X19662Y109517D01*
Y110550D01*
G01X20272Y109310D02*
X20472Y109129D01*
X20738Y109026D01*
X21038Y109000D01*
X21305Y109026D01*
X21572Y109155D01*
X21738Y109310D01*
X21772Y109465D01*
X21705Y109646D01*
X21472Y109775D01*
X21238Y109827D01*
X20938D01*
G01X21238D02*
X21438Y109904D01*
X21605Y110033D01*
X21672Y110188D01*
X21605Y110343D01*
X21438Y110472D01*
X21138Y110550D01*
X20838Y110524D01*
X20538Y110421D01*
G01X30328Y88310D02*
X30495Y88155D01*
X30695Y88052D01*
X30928Y88000D01*
X31195Y88052D01*
X31395Y88155D01*
X31595Y88310D01*
X31662Y88517D01*
Y89550D01*
G01X32272Y88232D02*
X32472Y88103D01*
X32705Y88026D01*
X33005Y88000D01*
X33305Y88052D01*
X33538Y88155D01*
X33705Y88336D01*
X33738Y88542D01*
X33672Y88749D01*
X33505Y88878D01*
X33272Y88982D01*
X33038Y89007D01*
X32805Y88982D01*
X32505Y88878D01*
X32605Y89550D01*
X33505D01*
G01X40400Y144000D02*
Y145550D01*
X39167Y144439D01*
X40833D01*
G01X41277Y144310D02*
X41477Y144129D01*
X41743Y144026D01*
X42043Y144000D01*
X42310Y144026D01*
X42577Y144155D01*
X42743Y144310D01*
X42777Y144465D01*
X42710Y144646D01*
X42477Y144775D01*
X42243Y144827D01*
X41943D01*
G01X42243D02*
X42443Y144904D01*
X42610Y145033D01*
X42677Y145188D01*
X42610Y145343D01*
X42443Y145472D01*
X42143Y145550D01*
X41843Y145524D01*
X41543Y145421D01*
G01X43387Y145292D02*
X43587Y145447D01*
X43820Y145524D01*
X44087Y145550D01*
X44420Y145498D01*
X44653Y145369D01*
X44720Y145214D01*
X44687Y145059D01*
X44553Y144930D01*
X43887Y144672D01*
X43587Y144491D01*
X43387Y144232D01*
X43320Y144000D01*
X44720D01*
G01X45197D02*
X46030Y145550D01*
X46863Y144000D01*
G01X46563Y144542D02*
X45497D01*
G01X28333Y141000D02*
Y142550D01*
X29133D01*
X29400Y142472D01*
X29600Y142292D01*
X29667Y142085D01*
X29600Y141878D01*
X29433Y141723D01*
X29133Y141646D01*
X28333D01*
G01X31010Y141000D02*
Y142550D01*
X30610Y142240D01*
G01Y141000D02*
X31410D01*
G01X32287D02*
Y142550D01*
X32953D01*
X33220Y142472D01*
X33420Y142369D01*
X33587Y142214D01*
X33720Y142033D01*
X33753Y141775D01*
X33720Y141517D01*
X33587Y141336D01*
X33420Y141181D01*
X33220Y141077D01*
X32953Y141000D01*
X32287D01*
G01X35763Y142421D02*
X35563Y142498D01*
X35330Y142550D01*
X35063D01*
X34763Y142472D01*
X34530Y142343D01*
X34363Y142188D01*
X34230Y141930D01*
X34197Y141697D01*
X34263Y141465D01*
X34363Y141310D01*
X34563Y141155D01*
X34797Y141052D01*
X35030Y141000D01*
X35263D01*
X35497Y141052D01*
X35697Y141129D01*
X35863Y141232D01*
G01X37707Y141000D02*
X36373D01*
Y142550D01*
X37707D01*
G01X37173Y141801D02*
X36373D01*
G01X40427Y142292D02*
X40627Y142447D01*
X40860Y142524D01*
X41127Y142550D01*
X41460Y142498D01*
X41693Y142369D01*
X41760Y142214D01*
X41727Y142059D01*
X41593Y141930D01*
X40927Y141672D01*
X40627Y141491D01*
X40427Y141232D01*
X40360Y141000D01*
X41760D01*
G01X43070Y142550D02*
X42803Y142498D01*
X42603Y142369D01*
X42470Y142214D01*
X42370Y142007D01*
X42337Y141775D01*
X42370Y141542D01*
X42470Y141336D01*
X42603Y141181D01*
X42803Y141052D01*
X43070Y141000D01*
X43337Y141052D01*
X43537Y141181D01*
X43670Y141336D01*
X43770Y141542D01*
X43803Y141775D01*
X43770Y142007D01*
X43670Y142214D01*
X43537Y142369D01*
X43337Y142498D01*
X43070Y142550D01*
G01X44447Y142292D02*
X44647Y142447D01*
X44880Y142524D01*
X45147Y142550D01*
X45480Y142498D01*
X45713Y142369D01*
X45780Y142214D01*
X45747Y142059D01*
X45613Y141930D01*
X44947Y141672D01*
X44647Y141491D01*
X44447Y141232D01*
X44380Y141000D01*
X45780D01*
G01X47490D02*
Y142550D01*
X46257Y141439D01*
X47923D01*
G01X48667Y141517D02*
X49533D01*
G01X50477Y142292D02*
X50677Y142447D01*
X50910Y142524D01*
X51177Y142550D01*
X51510Y142498D01*
X51743Y142369D01*
X51810Y142214D01*
X51777Y142059D01*
X51643Y141930D01*
X50977Y141672D01*
X50677Y141491D01*
X50477Y141232D01*
X50410Y141000D01*
X51810D01*
G01X53120Y142550D02*
X52853Y142498D01*
X52653Y142369D01*
X52520Y142214D01*
X52420Y142007D01*
X52387Y141775D01*
X52420Y141542D01*
X52520Y141336D01*
X52653Y141181D01*
X52853Y141052D01*
X53120Y141000D01*
X53387Y141052D01*
X53587Y141181D01*
X53720Y141336D01*
X53820Y141542D01*
X53853Y141775D01*
X53820Y142007D01*
X53720Y142214D01*
X53587Y142369D01*
X53387Y142498D01*
X53120Y142550D01*
G01X54497Y142292D02*
X54697Y142447D01*
X54930Y142524D01*
X55197Y142550D01*
X55530Y142498D01*
X55763Y142369D01*
X55830Y142214D01*
X55797Y142059D01*
X55663Y141930D01*
X54997Y141672D01*
X54697Y141491D01*
X54497Y141232D01*
X54430Y141000D01*
X55830D01*
G01X56407Y141232D02*
X56607Y141103D01*
X56840Y141026D01*
X57140Y141000D01*
X57440Y141052D01*
X57673Y141155D01*
X57840Y141336D01*
X57873Y141542D01*
X57807Y141749D01*
X57640Y141878D01*
X57407Y141982D01*
X57173Y142007D01*
X56940Y141982D01*
X56640Y141878D01*
X56740Y142550D01*
X57640D01*
G01X20318Y125000D02*
Y126550D01*
X21152D01*
X21418Y126472D01*
X21585Y126369D01*
X21652Y126162D01*
X21585Y125956D01*
X21385Y125827D01*
X21152Y125749D01*
X20318D01*
G01X21152D02*
X21652Y125000D01*
G01X22162D02*
X22995Y126550D01*
X23828Y125000D01*
G01X23528Y125542D02*
X22462D01*
G01X24272Y125000D02*
Y126550D01*
X24938D01*
X25205Y126472D01*
X25405Y126369D01*
X25572Y126214D01*
X25705Y126033D01*
X25738Y125775D01*
X25705Y125517D01*
X25572Y125336D01*
X25405Y125181D01*
X25205Y125077D01*
X24938Y125000D01*
X24272D01*
G01X27015D02*
Y126550D01*
X26615Y126240D01*
G01Y125000D02*
X27415D01*
G01X14328Y135523D02*
X14495Y135368D01*
X14695Y135265D01*
X14928Y135213D01*
X15195Y135265D01*
X15395Y135368D01*
X15595Y135523D01*
X15662Y135730D01*
Y136763D01*
G01X16372Y136505D02*
X16572Y136660D01*
X16805Y136737D01*
X17072Y136763D01*
X17405Y136711D01*
X17638Y136582D01*
X17705Y136427D01*
X17672Y136272D01*
X17538Y136143D01*
X16872Y135885D01*
X16572Y135704D01*
X16372Y135445D01*
X16305Y135213D01*
X17705D01*
G01X24300Y147207D02*
X24567Y147077D01*
X24867Y147000D01*
X25133D01*
X25400Y147077D01*
X25600Y147207D01*
X25700Y147388D01*
X25633Y147568D01*
X25467Y147723D01*
X25167Y147827D01*
X24767Y147878D01*
X24533Y147982D01*
X24433Y148162D01*
X24500Y148343D01*
X24667Y148472D01*
X24900Y148550D01*
X25133D01*
X25367Y148498D01*
X25567Y148369D01*
G01X27010Y148550D02*
Y147000D01*
G01X26543Y148033D02*
X27477D01*
G01X29620Y147000D02*
Y148033D01*
G01Y147853D02*
X29487Y147956D01*
X29287Y148007D01*
X29053Y148033D01*
X28820Y147982D01*
X28620Y147878D01*
X28487Y147723D01*
X28420Y147517D01*
X28487Y147310D01*
X28620Y147155D01*
X28820Y147052D01*
X29053Y147000D01*
X29287Y147026D01*
X29487Y147103D01*
X29620Y147207D01*
G01X30463Y147000D02*
Y148033D01*
G01Y147775D02*
X30597Y147904D01*
X30797Y148007D01*
X31063Y148033D01*
X31297Y148007D01*
X31497Y147904D01*
X31597Y147723D01*
Y147000D01*
G01X33573Y147904D02*
X33340Y148007D01*
X33140Y148033D01*
X32873Y147982D01*
X32673Y147878D01*
X32540Y147697D01*
X32507Y147517D01*
X32540Y147336D01*
X32673Y147181D01*
X32873Y147052D01*
X33140Y147000D01*
X33373Y147052D01*
X33573Y147155D01*
G01X34483Y148033D02*
Y147310D01*
X34617Y147129D01*
X34817Y147026D01*
X35050Y147000D01*
X35283Y147026D01*
X35483Y147129D01*
X35617Y147310D01*
G01Y147000D02*
Y148033D01*
G01X38237Y147000D02*
X39070Y148550D01*
X39903Y147000D01*
G01X39603Y147542D02*
X38537D01*
G01X41080Y147000D02*
Y148550D01*
G01X42590Y147697D02*
X43657D01*
X43557Y147878D01*
X43390Y147982D01*
X43157Y148033D01*
X42923Y148007D01*
X42723Y147930D01*
X42590Y147749D01*
X42523Y147594D01*
Y147439D01*
X42590Y147284D01*
X42757Y147129D01*
X42957Y147026D01*
X43190Y147000D01*
X43423Y147052D01*
X43657Y147207D01*
G01X44600Y148033D02*
X45600Y147000D01*
G01Y148033D02*
X44600Y147000D01*
G01X47110Y148033D02*
Y147000D01*
G01Y148447D02*
X47043Y148472D01*
Y148524D01*
X47110Y148550D01*
X47177Y148524D01*
Y148472D01*
X47110Y148447D01*
G01X49720Y147000D02*
Y148033D01*
G01Y147853D02*
X49587Y147956D01*
X49387Y148007D01*
X49153Y148033D01*
X48920Y147982D01*
X48720Y147878D01*
X48587Y147723D01*
X48520Y147517D01*
X48587Y147310D01*
X48720Y147155D01*
X48920Y147052D01*
X49153Y147000D01*
X49387Y147026D01*
X49587Y147103D01*
X49720Y147207D01*
G01X52273Y147000D02*
Y148550D01*
X53140Y147258D01*
X54007Y148550D01*
Y147000D01*
G01X55750D02*
Y148033D01*
G01Y147853D02*
X55617Y147956D01*
X55417Y148007D01*
X55183Y148033D01*
X54950Y147982D01*
X54750Y147878D01*
X54617Y147723D01*
X54550Y147517D01*
X54617Y147310D01*
X54750Y147155D01*
X54950Y147052D01*
X55183Y147000D01*
X55417Y147026D01*
X55617Y147103D01*
X55750Y147207D01*
G01X56693Y147000D02*
Y148033D01*
G01Y147827D02*
X56860Y147930D01*
X57027Y148007D01*
X57260Y148033D01*
X57427Y148007D01*
X57627Y147930D01*
G01X59170Y148033D02*
Y147000D01*
G01Y148447D02*
X59103Y148472D01*
Y148524D01*
X59170Y148550D01*
X59237Y148524D01*
Y148472D01*
X59170Y148447D01*
G01X61780Y147000D02*
Y148033D01*
G01Y147853D02*
X61647Y147956D01*
X61447Y148007D01*
X61213Y148033D01*
X60980Y147982D01*
X60780Y147878D01*
X60647Y147723D01*
X60580Y147517D01*
X60647Y147310D01*
X60780Y147155D01*
X60980Y147052D01*
X61213Y147000D01*
X61447Y147026D01*
X61647Y147103D01*
X61780Y147207D01*
G01X48728Y17421D02*
X48528Y17498D01*
X48295Y17550D01*
X48028D01*
X47728Y17472D01*
X47495Y17343D01*
X47328Y17188D01*
X47195Y16930D01*
X47162Y16697D01*
X47228Y16465D01*
X47328Y16310D01*
X47528Y16155D01*
X47762Y16052D01*
X47995Y16000D01*
X48228D01*
X48462Y16052D01*
X48662Y16129D01*
X48828Y16232D01*
G01X49372Y16646D02*
X49605Y16827D01*
X49805Y16930D01*
X50072Y16982D01*
X50305Y16930D01*
X50472Y16827D01*
X50605Y16672D01*
X50638Y16491D01*
X50605Y16336D01*
X50472Y16181D01*
X50272Y16052D01*
X50038Y16000D01*
X49772Y16052D01*
X49538Y16207D01*
X49405Y16439D01*
X49372Y16697D01*
X49438Y17033D01*
X49538Y17214D01*
X49705Y17395D01*
X49938Y17524D01*
X50172Y17550D01*
X50405Y17498D01*
X50572Y17369D01*
G01X62728Y17421D02*
X62528Y17498D01*
X62295Y17550D01*
X62028D01*
X61728Y17472D01*
X61495Y17343D01*
X61328Y17188D01*
X61195Y16930D01*
X61162Y16697D01*
X61228Y16465D01*
X61328Y16310D01*
X61528Y16155D01*
X61762Y16052D01*
X61995Y16000D01*
X62228D01*
X62462Y16052D01*
X62662Y16129D01*
X62828Y16232D01*
G01X63938Y16000D02*
X64005Y16336D01*
X64105Y16620D01*
X64238Y16878D01*
X64405Y17162D01*
X64672Y17550D01*
X63338D01*
G01X47328Y52000D02*
Y53550D01*
X48162D01*
X48428Y53472D01*
X48595Y53369D01*
X48662Y53162D01*
X48595Y52956D01*
X48395Y52827D01*
X48162Y52749D01*
X47328D01*
G01X48162D02*
X48662Y52000D01*
G01X49938D02*
X50005Y52336D01*
X50105Y52620D01*
X50238Y52878D01*
X50405Y53162D01*
X50672Y53550D01*
X49338D01*
G01X47328Y40000D02*
Y41550D01*
X48162D01*
X48428Y41472D01*
X48595Y41369D01*
X48662Y41162D01*
X48595Y40956D01*
X48395Y40827D01*
X48162Y40749D01*
X47328D01*
G01X48162D02*
X48662Y40000D01*
G01X50005D02*
X50238Y40026D01*
X50505Y40103D01*
X50672Y40232D01*
X50738Y40413D01*
X50672Y40594D01*
X50472Y40749D01*
X50172Y40827D01*
X49838D01*
X49638Y40878D01*
X49472Y41007D01*
X49405Y41188D01*
X49505Y41369D01*
X49738Y41498D01*
X50005Y41550D01*
X50272Y41498D01*
X50505Y41369D01*
X50605Y41188D01*
X50538Y41007D01*
X50372Y40878D01*
X50172Y40827D01*
X49838D01*
X49538Y40749D01*
X49338Y40594D01*
X49272Y40413D01*
X49338Y40232D01*
X49505Y40103D01*
X49772Y40026D01*
X50005Y40000D01*
G01X47328Y29000D02*
Y30550D01*
X48162D01*
X48428Y30472D01*
X48595Y30369D01*
X48662Y30162D01*
X48595Y29956D01*
X48395Y29827D01*
X48162Y29749D01*
X47328D01*
G01X48162D02*
X48662Y29000D01*
G01X49438Y29181D02*
X49672Y29052D01*
X49938Y29000D01*
X50205Y29052D01*
X50438Y29207D01*
X50605Y29439D01*
X50672Y29672D01*
Y29956D01*
X50605Y30188D01*
X50438Y30395D01*
X50238Y30498D01*
X50005Y30550D01*
X49738Y30498D01*
X49538Y30395D01*
X49405Y30240D01*
X49338Y30033D01*
X49405Y29853D01*
X49572Y29672D01*
X49772Y29568D01*
X50005Y29542D01*
X50272Y29594D01*
X50472Y29723D01*
X50672Y29956D01*
G01X63323Y29000D02*
Y30550D01*
X64157D01*
X64423Y30472D01*
X64590Y30369D01*
X64657Y30162D01*
X64590Y29956D01*
X64390Y29827D01*
X64157Y29749D01*
X63323D01*
G01X64157D02*
X64657Y29000D01*
G01X66000D02*
Y30550D01*
X65600Y30240D01*
G01Y29000D02*
X66400D01*
G01X68010Y30550D02*
X67743Y30498D01*
X67543Y30369D01*
X67410Y30214D01*
X67310Y30007D01*
X67277Y29775D01*
X67310Y29542D01*
X67410Y29336D01*
X67543Y29181D01*
X67743Y29052D01*
X68010Y29000D01*
X68277Y29052D01*
X68477Y29181D01*
X68610Y29336D01*
X68710Y29542D01*
X68743Y29775D01*
X68710Y30007D01*
X68610Y30214D01*
X68477Y30369D01*
X68277Y30498D01*
X68010Y30550D01*
G01X50328Y76000D02*
Y77550D01*
X51162D01*
X51428Y77472D01*
X51595Y77369D01*
X51662Y77162D01*
X51595Y76956D01*
X51395Y76827D01*
X51162Y76749D01*
X50328D01*
G01X51162D02*
X51662Y76000D01*
G01X52372Y76646D02*
X52605Y76827D01*
X52805Y76930D01*
X53072Y76982D01*
X53305Y76930D01*
X53472Y76827D01*
X53605Y76672D01*
X53638Y76491D01*
X53605Y76336D01*
X53472Y76181D01*
X53272Y76052D01*
X53038Y76000D01*
X52772Y76052D01*
X52538Y76207D01*
X52405Y76439D01*
X52372Y76697D01*
X52438Y77033D01*
X52538Y77214D01*
X52705Y77395D01*
X52938Y77524D01*
X53172Y77550D01*
X53405Y77498D01*
X53572Y77369D01*
G01X62579Y64728D02*
X62502Y64528D01*
X62450Y64295D01*
Y64028D01*
X62528Y63728D01*
X62657Y63495D01*
X62812Y63328D01*
X63070Y63195D01*
X63303Y63162D01*
X63535Y63228D01*
X63690Y63328D01*
X63845Y63528D01*
X63948Y63762D01*
X64000Y63995D01*
Y64228D01*
X63948Y64462D01*
X63871Y64662D01*
X63768Y64828D01*
G01X64000Y66405D02*
X62450D01*
X63561Y65172D01*
Y66838D01*
G01X55728Y108421D02*
X55528Y108498D01*
X55295Y108550D01*
X55028D01*
X54728Y108472D01*
X54495Y108343D01*
X54328Y108188D01*
X54195Y107930D01*
X54162Y107697D01*
X54228Y107465D01*
X54328Y107310D01*
X54528Y107155D01*
X54762Y107052D01*
X54995Y107000D01*
X55228D01*
X55462Y107052D01*
X55662Y107129D01*
X55828Y107232D01*
G01X57005Y107000D02*
Y108550D01*
X56605Y108240D01*
G01Y107000D02*
X57405D01*
G01X65990Y109550D02*
Y108000D01*
G01X65223Y109550D02*
X66757D01*
G01X67333Y108000D02*
Y109550D01*
X68133D01*
X68400Y109472D01*
X68600Y109292D01*
X68667Y109085D01*
X68600Y108878D01*
X68433Y108723D01*
X68133Y108646D01*
X67333D01*
G01X70010Y108000D02*
Y109550D01*
X69610Y109240D01*
G01Y108000D02*
X70410D01*
G01X49728Y137421D02*
X49528Y137498D01*
X49295Y137550D01*
X49028D01*
X48728Y137472D01*
X48495Y137343D01*
X48328Y137188D01*
X48195Y136930D01*
X48162Y136697D01*
X48228Y136465D01*
X48328Y136310D01*
X48528Y136155D01*
X48762Y136052D01*
X48995Y136000D01*
X49228D01*
X49462Y136052D01*
X49662Y136129D01*
X49828Y136232D01*
G01X51005Y136000D02*
X51238Y136026D01*
X51505Y136103D01*
X51672Y136232D01*
X51738Y136413D01*
X51672Y136594D01*
X51472Y136749D01*
X51172Y136827D01*
X50838D01*
X50638Y136878D01*
X50472Y137007D01*
X50405Y137188D01*
X50505Y137369D01*
X50738Y137498D01*
X51005Y137550D01*
X51272Y137498D01*
X51505Y137369D01*
X51605Y137188D01*
X51538Y137007D01*
X51372Y136878D01*
X51172Y136827D01*
X50838D01*
X50538Y136749D01*
X50338Y136594D01*
X50272Y136413D01*
X50338Y136232D01*
X50505Y136103D01*
X50772Y136026D01*
X51005Y136000D01*
G01X65323Y118523D02*
X65490Y118368D01*
X65690Y118265D01*
X65923Y118213D01*
X66190Y118265D01*
X66390Y118368D01*
X66590Y118523D01*
X66657Y118730D01*
Y119763D01*
G01X68000Y118213D02*
Y119763D01*
X67600Y119453D01*
G01Y118213D02*
X68400D01*
G01X70410D02*
Y119763D01*
X69177Y118652D01*
X70843D01*
G01X65990Y127550D02*
Y126000D01*
G01X65223Y127550D02*
X66757D01*
G01X67333Y126000D02*
Y127550D01*
X68133D01*
X68400Y127472D01*
X68600Y127292D01*
X68667Y127085D01*
X68600Y126878D01*
X68433Y126723D01*
X68133Y126646D01*
X67333D01*
G01X69377Y127292D02*
X69577Y127447D01*
X69810Y127524D01*
X70077Y127550D01*
X70410Y127498D01*
X70643Y127369D01*
X70710Y127214D01*
X70677Y127059D01*
X70543Y126930D01*
X69877Y126672D01*
X69577Y126491D01*
X69377Y126232D01*
X69310Y126000D01*
X70710D01*
G01X65323Y136523D02*
X65490Y136368D01*
X65690Y136265D01*
X65923Y136213D01*
X66190Y136265D01*
X66390Y136368D01*
X66590Y136523D01*
X66657Y136730D01*
Y137763D01*
G01X68000Y136213D02*
Y137763D01*
X67600Y137453D01*
G01Y136213D02*
X68400D01*
G01X70010D02*
Y137763D01*
X69610Y137453D01*
G01Y136213D02*
X70410D01*
G01X93190Y13775D02*
X93857D01*
Y13310D01*
X93657Y13155D01*
X93423Y13052D01*
X93090Y13000D01*
X92757Y13052D01*
X92523Y13155D01*
X92323Y13310D01*
X92190Y13491D01*
X92123Y13697D01*
Y13878D01*
X92190Y14033D01*
X92323Y14214D01*
X92523Y14369D01*
X92723Y14472D01*
X92990Y14550D01*
X93223D01*
X93490Y14498D01*
X93690Y14395D01*
G01X94233Y13000D02*
Y14550D01*
X95767Y13000D01*
Y14550D01*
G01X96277Y13000D02*
Y14550D01*
X96943D01*
X97210Y14472D01*
X97410Y14369D01*
X97577Y14214D01*
X97710Y14033D01*
X97743Y13775D01*
X97710Y13517D01*
X97577Y13336D01*
X97410Y13181D01*
X97210Y13077D01*
X96943Y13000D01*
X96277D01*
G01X87690Y15323D02*
X87845Y15490D01*
X87948Y15690D01*
X88000Y15923D01*
X87948Y16190D01*
X87845Y16390D01*
X87690Y16590D01*
X87483Y16657D01*
X86450D01*
G01X88000Y18000D02*
X86450D01*
X86760Y17600D01*
G01X88000D02*
Y18400D01*
G01X86450Y20010D02*
X86502Y19743D01*
X86631Y19543D01*
X86786Y19410D01*
X86993Y19310D01*
X87225Y19277D01*
X87458Y19310D01*
X87664Y19410D01*
X87819Y19543D01*
X87948Y19743D01*
X88000Y20010D01*
X87948Y20277D01*
X87819Y20477D01*
X87664Y20610D01*
X87458Y20710D01*
X87225Y20743D01*
X86993Y20710D01*
X86786Y20610D01*
X86631Y20477D01*
X86502Y20277D01*
X86450Y20010D01*
G01X77323Y29000D02*
Y30550D01*
X78157D01*
X78423Y30472D01*
X78590Y30369D01*
X78657Y30162D01*
X78590Y29956D01*
X78390Y29827D01*
X78157Y29749D01*
X77323D01*
G01X78157D02*
X78657Y29000D01*
G01X80000D02*
Y30550D01*
X79600Y30240D01*
G01Y29000D02*
X80400D01*
G01X81377Y29646D02*
X81610Y29827D01*
X81810Y29930D01*
X82077Y29982D01*
X82310Y29930D01*
X82477Y29827D01*
X82610Y29672D01*
X82643Y29491D01*
X82610Y29336D01*
X82477Y29181D01*
X82277Y29052D01*
X82043Y29000D01*
X81777Y29052D01*
X81543Y29207D01*
X81410Y29439D01*
X81377Y29697D01*
X81443Y30033D01*
X81543Y30214D01*
X81710Y30395D01*
X81943Y30524D01*
X82177Y30550D01*
X82410Y30498D01*
X82577Y30369D01*
G01X94728Y34421D02*
X94528Y34498D01*
X94295Y34550D01*
X94028D01*
X93728Y34472D01*
X93495Y34343D01*
X93328Y34188D01*
X93195Y33930D01*
X93162Y33697D01*
X93228Y33465D01*
X93328Y33310D01*
X93528Y33155D01*
X93762Y33052D01*
X93995Y33000D01*
X94228D01*
X94462Y33052D01*
X94662Y33129D01*
X94828Y33232D01*
G01X95272Y33310D02*
X95472Y33129D01*
X95738Y33026D01*
X96038Y33000D01*
X96305Y33026D01*
X96572Y33155D01*
X96738Y33310D01*
X96772Y33465D01*
X96705Y33646D01*
X96472Y33775D01*
X96238Y33827D01*
X95938D01*
G01X96238D02*
X96438Y33904D01*
X96605Y34033D01*
X96672Y34188D01*
X96605Y34343D01*
X96438Y34472D01*
X96138Y34550D01*
X95838Y34524D01*
X95538Y34421D01*
G01X94728Y44421D02*
X94528Y44498D01*
X94295Y44550D01*
X94028D01*
X93728Y44472D01*
X93495Y44343D01*
X93328Y44188D01*
X93195Y43930D01*
X93162Y43697D01*
X93228Y43465D01*
X93328Y43310D01*
X93528Y43155D01*
X93762Y43052D01*
X93995Y43000D01*
X94228D01*
X94462Y43052D01*
X94662Y43129D01*
X94828Y43232D01*
G01X95372Y44292D02*
X95572Y44447D01*
X95805Y44524D01*
X96072Y44550D01*
X96405Y44498D01*
X96638Y44369D01*
X96705Y44214D01*
X96672Y44059D01*
X96538Y43930D01*
X95872Y43672D01*
X95572Y43491D01*
X95372Y43232D01*
X95305Y43000D01*
X96705D01*
G01X82000Y106000D02*
X81733Y106026D01*
X81500Y106129D01*
X81300Y106284D01*
X81167Y106465D01*
X81100Y106672D01*
Y106878D01*
X81167Y107085D01*
X81300Y107266D01*
X81500Y107421D01*
X81733Y107524D01*
X82000Y107550D01*
X82267Y107524D01*
X82500Y107421D01*
X82700Y107266D01*
X82833Y107085D01*
X82900Y106878D01*
Y106672D01*
X82833Y106465D01*
X82700Y106284D01*
X82500Y106129D01*
X82267Y106026D01*
X82000Y106000D01*
G01X82267Y106413D02*
X82667Y106000D01*
G01X84010D02*
Y107550D01*
X83610Y107240D01*
G01Y106000D02*
X84410D01*
G01X92450Y111990D02*
X94000D01*
G01X92450Y111223D02*
Y112757D01*
G01X94000Y113333D02*
X92450D01*
Y114133D01*
X92528Y114400D01*
X92708Y114600D01*
X92915Y114667D01*
X93122Y114600D01*
X93277Y114433D01*
X93354Y114133D01*
Y113333D01*
G01X93690Y115277D02*
X93871Y115477D01*
X93974Y115743D01*
X94000Y116043D01*
X93974Y116310D01*
X93845Y116577D01*
X93690Y116743D01*
X93535Y116777D01*
X93354Y116710D01*
X93225Y116477D01*
X93173Y116243D01*
Y115943D01*
G01Y116243D02*
X93096Y116443D01*
X92967Y116610D01*
X92812Y116677D01*
X92657Y116610D01*
X92528Y116443D01*
X92450Y116143D01*
X92476Y115843D01*
X92579Y115543D01*
G01X84328Y129000D02*
Y130550D01*
X85162D01*
X85428Y130472D01*
X85595Y130369D01*
X85662Y130162D01*
X85595Y129956D01*
X85395Y129827D01*
X85162Y129749D01*
X84328D01*
G01X85162D02*
X85662Y129000D01*
G01X86372Y130292D02*
X86572Y130447D01*
X86805Y130524D01*
X87072Y130550D01*
X87405Y130498D01*
X87638Y130369D01*
X87705Y130214D01*
X87672Y130059D01*
X87538Y129930D01*
X86872Y129672D01*
X86572Y129491D01*
X86372Y129232D01*
X86305Y129000D01*
X87705D01*
G01X98323Y119523D02*
X98490Y119368D01*
X98690Y119265D01*
X98923Y119213D01*
X99190Y119265D01*
X99390Y119368D01*
X99590Y119523D01*
X99657Y119730D01*
Y120763D01*
G01X101000Y119213D02*
Y120763D01*
X100600Y120453D01*
G01Y119213D02*
X101400D01*
G01X102377Y120505D02*
X102577Y120660D01*
X102810Y120737D01*
X103077Y120763D01*
X103410Y120711D01*
X103643Y120582D01*
X103710Y120427D01*
X103677Y120272D01*
X103543Y120143D01*
X102877Y119885D01*
X102577Y119704D01*
X102377Y119445D01*
X102310Y119213D01*
X103710D01*
G01X83323Y149000D02*
Y150550D01*
X84157D01*
X84423Y150472D01*
X84590Y150369D01*
X84657Y150162D01*
X84590Y149956D01*
X84390Y149827D01*
X84157Y149749D01*
X83323D01*
G01X84157D02*
X84657Y149000D01*
G01X86000D02*
Y150550D01*
X85600Y150240D01*
G01Y149000D02*
X86400D01*
G01X87377Y150292D02*
X87577Y150447D01*
X87810Y150524D01*
X88077Y150550D01*
X88410Y150498D01*
X88643Y150369D01*
X88710Y150214D01*
X88677Y150059D01*
X88543Y149930D01*
X87877Y149672D01*
X87577Y149491D01*
X87377Y149232D01*
X87310Y149000D01*
X88710D01*
G01X101323D02*
Y150550D01*
X102157D01*
X102423Y150472D01*
X102590Y150369D01*
X102657Y150162D01*
X102590Y149956D01*
X102390Y149827D01*
X102157Y149749D01*
X101323D01*
G01X102157D02*
X102657Y149000D01*
G01X104000D02*
Y150550D01*
X103600Y150240D01*
G01Y149000D02*
X104400D01*
G01X106010D02*
Y150550D01*
X105610Y150240D01*
G01Y149000D02*
X106410D01*
G01X115333Y40000D02*
Y41550D01*
X116133D01*
X116400Y41472D01*
X116600Y41292D01*
X116667Y41085D01*
X116600Y40878D01*
X116433Y40723D01*
X116133Y40646D01*
X115333D01*
G01X118010Y40000D02*
Y41550D01*
X117610Y41240D01*
G01Y40000D02*
X118410D01*
G01X105579Y66728D02*
X105502Y66528D01*
X105450Y66295D01*
Y66028D01*
X105528Y65728D01*
X105657Y65495D01*
X105812Y65328D01*
X106070Y65195D01*
X106303Y65162D01*
X106535Y65228D01*
X106690Y65328D01*
X106845Y65528D01*
X106948Y65762D01*
X107000Y65995D01*
Y66228D01*
X106948Y66462D01*
X106871Y66662D01*
X106768Y66828D01*
G01Y67272D02*
X106897Y67472D01*
X106974Y67705D01*
X107000Y68005D01*
X106948Y68305D01*
X106845Y68538D01*
X106664Y68705D01*
X106458Y68738D01*
X106251Y68672D01*
X106122Y68505D01*
X106018Y68272D01*
X105993Y68038D01*
X106018Y67805D01*
X106122Y67505D01*
X105450Y67605D01*
Y68505D01*
G01X106000Y106000D02*
X105733Y106026D01*
X105500Y106129D01*
X105300Y106284D01*
X105167Y106465D01*
X105100Y106672D01*
Y106878D01*
X105167Y107085D01*
X105300Y107266D01*
X105500Y107421D01*
X105733Y107524D01*
X106000Y107550D01*
X106267Y107524D01*
X106500Y107421D01*
X106700Y107266D01*
X106833Y107085D01*
X106900Y106878D01*
Y106672D01*
X106833Y106465D01*
X106700Y106284D01*
X106500Y106129D01*
X106267Y106026D01*
X106000Y106000D01*
G01X106267Y106413D02*
X106667Y106000D01*
G01X107377Y107292D02*
X107577Y107447D01*
X107810Y107524D01*
X108077Y107550D01*
X108410Y107498D01*
X108643Y107369D01*
X108710Y107214D01*
X108677Y107059D01*
X108543Y106930D01*
X107877Y106672D01*
X107577Y106491D01*
X107377Y106232D01*
X107310Y106000D01*
X108710D01*
G01X113328Y128000D02*
Y129550D01*
X114162D01*
X114428Y129472D01*
X114595Y129369D01*
X114662Y129162D01*
X114595Y128956D01*
X114395Y128827D01*
X114162Y128749D01*
X113328D01*
G01X114162D02*
X114662Y128000D01*
G01X116405D02*
Y129550D01*
X115172Y128439D01*
X116838D01*
G01X123267Y150000D02*
Y151550D01*
X123933D01*
X124200Y151472D01*
X124400Y151369D01*
X124567Y151214D01*
X124700Y151033D01*
X124733Y150775D01*
X124700Y150517D01*
X124567Y150336D01*
X124400Y150181D01*
X124200Y150077D01*
X123933Y150000D01*
X123267D01*
G01X126010D02*
Y151550D01*
X125610Y151240D01*
G01Y150000D02*
X126410D01*
G01X141990Y21000D02*
X141723Y21026D01*
X141490Y21129D01*
X141290Y21284D01*
X141157Y21465D01*
X141090Y21672D01*
Y21878D01*
X141157Y22085D01*
X141290Y22266D01*
X141490Y22421D01*
X141723Y22524D01*
X141990Y22550D01*
X142257Y22524D01*
X142490Y22421D01*
X142690Y22266D01*
X142823Y22085D01*
X142890Y21878D01*
Y21672D01*
X142823Y21465D01*
X142690Y21284D01*
X142490Y21129D01*
X142257Y21026D01*
X141990Y21000D01*
G01X143267Y22550D02*
Y21439D01*
X143400Y21207D01*
X143667Y21052D01*
X144000Y21000D01*
X144333Y21052D01*
X144600Y21207D01*
X144733Y21439D01*
Y22550D01*
G01X146010D02*
Y21000D01*
G01X145243Y22550D02*
X146777D01*
G01X142328Y31523D02*
X142495Y31368D01*
X142695Y31265D01*
X142928Y31213D01*
X143195Y31265D01*
X143395Y31368D01*
X143595Y31523D01*
X143662Y31730D01*
Y32763D01*
G01X145005Y31213D02*
X145238Y31239D01*
X145505Y31316D01*
X145672Y31445D01*
X145738Y31626D01*
X145672Y31807D01*
X145472Y31962D01*
X145172Y32040D01*
X144838D01*
X144638Y32091D01*
X144472Y32220D01*
X144405Y32401D01*
X144505Y32582D01*
X144738Y32711D01*
X145005Y32763D01*
X145272Y32711D01*
X145505Y32582D01*
X145605Y32401D01*
X145538Y32220D01*
X145372Y32091D01*
X145172Y32040D01*
X144838D01*
X144538Y31962D01*
X144338Y31807D01*
X144272Y31626D01*
X144338Y31445D01*
X144505Y31316D01*
X144772Y31239D01*
X145005Y31213D01*
G01X135328Y104000D02*
Y105550D01*
X136162D01*
X136428Y105472D01*
X136595Y105369D01*
X136662Y105162D01*
X136595Y104956D01*
X136395Y104827D01*
X136162Y104749D01*
X135328D01*
G01X136162D02*
X136662Y104000D01*
G01X137272Y104232D02*
X137472Y104103D01*
X137705Y104026D01*
X138005Y104000D01*
X138305Y104052D01*
X138538Y104155D01*
X138705Y104336D01*
X138738Y104542D01*
X138672Y104749D01*
X138505Y104878D01*
X138272Y104982D01*
X138038Y105007D01*
X137805Y104982D01*
X137505Y104878D01*
X137605Y105550D01*
X138505D01*
G01X136333Y130310D02*
X136500Y130155D01*
X136700Y130052D01*
X136933Y130000D01*
X137200Y130052D01*
X137400Y130155D01*
X137600Y130310D01*
X137667Y130517D01*
Y131550D01*
G01X138443Y130181D02*
X138677Y130052D01*
X138943Y130000D01*
X139210Y130052D01*
X139443Y130207D01*
X139610Y130439D01*
X139677Y130672D01*
Y130956D01*
X139610Y131188D01*
X139443Y131395D01*
X139243Y131498D01*
X139010Y131550D01*
X138743Y131498D01*
X138543Y131395D01*
X138410Y131240D01*
X138343Y131033D01*
X138410Y130853D01*
X138577Y130672D01*
X138777Y130568D01*
X139010Y130542D01*
X139277Y130594D01*
X139477Y130723D01*
X139677Y130956D01*
G54D13*
G01X86807Y85913D02*
G03I-492J0D01*
G01X129807D02*
G03I-492J0D01*
G54D14*
G01X18165Y63000D02*
X13835D01*
G01X35000Y62165D02*
Y57835D01*
G01X18165Y91000D02*
X13835D01*
G01X34000Y100165D02*
Y95835D01*
G01X18165Y118000D02*
X13835D01*
G01X49000Y21835D02*
Y26165D01*
G01X66000Y21835D02*
Y26165D01*
G01X49000Y44835D02*
Y49165D01*
G01Y32835D02*
Y37165D01*
G01X52000Y68835D02*
Y73165D01*
G01X76276Y55008D02*
X68008D01*
Y74496D01*
X74504Y80992D01*
X76276D01*
G01X77835Y20000D02*
X82165D01*
G01X85724Y55008D02*
X93992D01*
Y74496D01*
X87496Y80992D01*
X85724D01*
G01X86000Y126165D02*
Y121835D01*
G01Y141835D02*
Y146165D01*
G01X121122Y22000D02*
Y30858D01*
G01Y20622D02*
G03X127028Y26528I0J5906D01*
G03X120925Y32433I-5909J-1D01*
G03X115217Y26528I194J-5899D01*
G03X121122Y20622I5905J-1D01*
G01X130965Y21016D02*
Y16685D01*
X111280D01*
Y17866D01*
G01X125650Y26528D02*
X116594D01*
G01X111280Y25543D02*
Y27512D01*
G01X130965Y32039D02*
Y36370D01*
X111280D01*
Y35189D01*
G01X119276Y55008D02*
X111008D01*
Y74496D01*
X117504Y80992D01*
X119276D01*
G01X128724Y55008D02*
X136992D01*
Y74496D01*
X130496Y80992D01*
X128724D01*
G01X104000Y146165D02*
Y141835D01*
G01X117165Y120000D02*
X112835D01*
G01X137000Y101165D02*
Y96835D01*
M02*
